<svg xmlns="http://www.w3.org/2000/svg" viewBox="0 0 64 64">
  <defs>
    <style>
      .cls-4,.cls-5{fill:none}.cls-5{stroke:#000;stroke-linecap:round;stroke-linejoin:round;stroke-width:2px}.cls-8{mix-blend-mode:overlay;fill:#fff}</style>
  </defs>
  <g style="isolation:isolate">
    <g id="Layer_1" data-name="Layer 1">
      <g id="Vector">
        <path
          d="M61.18 32.56a17.21 17.21 0 0 1-4.88 6.22 11.09 11.09 0 0 0-4.8-1.1 10.85 10.85 0 0 0-4.51 1A10.32 10.32 0 0 0 45.6 37a10.83 10.83 0 0 0-7.6-3.08 11 11 0 0 0-3.1.44A11.24 11.24 0 0 0 28.2 27c-.05-.55-.08-1.11-.08-1.67A17.33 17.33 0 0 1 42.74 8.18a17.34 17.34 0 0 0 18.44 24.38z"
          style="fill:#fb0" />
        <path
          d="M60.68 54.57a2.77 2.77 0 0 1-2.35 1.24H5.71a2.84 2.84 0 0 1-2.42-1.31 11.26 11.26 0 0 1-1.66-5.89 10.74 10.74 0 0 1 .19-2.06 11.2 11.2 0 0 1 11-9.18 11.24 11.24 0 0 1 11.25-11.2 11.29 11.29 0 0 1 2.42.26 10.91 10.91 0 0 1 1.71.57 11.24 11.24 0 0 1 6.69 7.4 11 11 0 0 1 3.1-.44A10.83 10.83 0 0 1 45.6 37a10.32 10.32 0 0 1 1.4 1.65 10.85 10.85 0 0 1 4.51-1 11.09 11.09 0 0 1 4.8 1.1 10.94 10.94 0 0 1 6 7.78 11.93 11.93 0 0 1-1.63 8.04z"
          style="fill:#e2e2e2" />
        <path class="cls-4"
          d="M25.52 30.15a5.59 5.59 0 0 1 5.16 5.72M34.25 38.12s6.38-3.47 9.66 3.28" />
      </g>
      <g id="Line">
        <path class="cls-5"
          d="M61.18 32.56a17.21 17.21 0 0 1-4.88 6.22 11.09 11.09 0 0 0-4.8-1.1 10.85 10.85 0 0 0-4.51 1A10.32 10.32 0 0 0 45.6 37a10.83 10.83 0 0 0-7.6-3.08 11 11 0 0 0-3.1.44A11.24 11.24 0 0 0 28.2 27c-.05-.55-.08-1.11-.08-1.67A17.33 17.33 0 0 1 42.74 8.18a17.34 17.34 0 0 0 18.44 24.38z" />
        <path class="cls-5"
          d="M60.68 54.57h0a2.77 2.77 0 0 1-2.35 1.24H5.71a2.84 2.84 0 0 1-2.42-1.31 11.26 11.26 0 0 1-1.66-5.89 10.74 10.74 0 0 1 .19-2.06 11.2 11.2 0 0 1 11-9.18 11.24 11.24 0 0 1 11.25-11.2 11.29 11.29 0 0 1 2.42.26h0a10.91 10.91 0 0 1 1.71.57 11.24 11.24 0 0 1 6.69 7.4 11 11 0 0 1 3.1-.44A10.83 10.83 0 0 1 45.6 37a10.32 10.32 0 0 1 1.4 1.65 10.85 10.85 0 0 1 4.51-1 11.09 11.09 0 0 1 4.8 1.1 10.94 10.94 0 0 1 6 7.78 11.93 11.93 0 0 1-1.63 8.04z" />
        <path class="cls-5"
          d="M25.52 30.15a5.59 5.59 0 0 1 5.16 5.72M34.25 38.12s6.38-3.47 9.66 3.28" />
      </g>
      <g id="Shadow" style="opacity:.25;mix-blend-mode:multiply">
        <path
          d="M5.71 55.82h5a2.84 2.84 0 0 1-2.42-1.31 11.26 11.26 0 0 1-1.66-5.89 10.74 10.74 0 0 1 .19-2.06 11.2 11.2 0 0 1 11-9.18 11.16 11.16 0 0 1 3.51-8.13 11 11 0 0 1 5.21-2.79h-.07a11.29 11.29 0 0 0-2.42-.26 11.24 11.24 0 0 0-11.21 11.18 11.2 11.2 0 0 0-11 9.18 10.74 10.74 0 0 0-.19 2.06 11.26 11.26 0 0 0 1.66 5.89 2.84 2.84 0 0 0 2.4 1.31zM29.63 27.65a10 10 0 0 1 .89.56 11.34 11.34 0 0 1 2.09 1.9 15.2 15.2 0 0 0 .53-4v-.84A17.3 17.3 0 0 1 42 10.18a15 15 0 0 1 .76-2 17.33 17.33 0 0 0-14.64 17.11v.92a1.15 1.15 0 0 1 .91 0 1.23 1.23 0 0 1 .6 1.44z" />
      </g>
      <g id="Highligth" style="mix-blend-mode:overlay">
        <path class="cls-8"
          d="M56 32.58a17.32 17.32 0 0 1-13.26-24.4 16.93 16.93 0 0 0-5.76 2 17.3 17.3 0 0 0 16.49 22.59 17.79 17.79 0 0 0 2.53-.19zM56.3 38.78a17.21 17.21 0 0 0 4.88-6.22 16.71 16.71 0 0 1-5 0 17.21 17.21 0 0 1-4.86 6.18 10.94 10.94 0 0 1 6 7.78 11.93 11.93 0 0 1-1.57 8 2.77 2.77 0 0 1-2.35 1.24h5a2.77 2.77 0 0 0 2.35-1.24 11.93 11.93 0 0 0 1.57-8 10.94 10.94 0 0 0-6.02-7.74z" />
      </g>
    </g>
  </g>
</svg>