<svg xmlns="http://www.w3.org/2000/svg" viewBox="0 0 512 512"
    style="enable-background:new 0 0 512 512" xml:space="preserve"><circle style="fill:#ffdc7b" cx="256" cy="256" r="157.132"/><path style="fill:#f0ae59" d="M119.768 256c0-83.268 64.773-151.396 146.681-156.775A159.264 159.264 0 0 0 256 98.871c-86.781 0-157.13 70.349-157.13 157.13 0 86.78 70.349 157.13 157.13 157.13 3.512 0 6.995-.128 10.449-.354-81.907-5.381-146.681-73.509-146.681-156.777z"/><circle style="fill:#fff1cc" cx="309.123" cy="211.331" r="31.089"/><path d="M256 44.929a7.837 7.837 0 0 0 7.837-7.837V7.837A7.837 7.837 0 0 0 256 0a7.837 7.837 0 0 0-7.837 7.837v29.255A7.837 7.837 0 0 0 256 44.929zM256 467.071a7.837 7.837 0 0 0-7.837 7.837v29.255A7.837 7.837 0 0 0 256 512a7.837 7.837 0 0 0 7.837-7.837v-29.255a7.837 7.837 0 0 0-7.837-7.837zM139.759 70.337a7.834 7.834 0 0 0 10.705 2.868 7.837 7.837 0 0 0 2.868-10.705l-14.628-25.336a7.835 7.835 0 0 0-10.705-2.868 7.837 7.837 0 0 0-2.868 10.705l14.628 25.336zM372.241 441.663a7.836 7.836 0 1 0-13.573 7.837l14.628 25.336a7.834 7.834 0 0 0 10.705 2.868 7.837 7.837 0 0 0 2.868-10.705l-14.628-25.336zM70.337 139.759l-25.335-14.628a7.834 7.834 0 0 0-10.705 2.868 7.837 7.837 0 0 0 2.868 10.705L62.5 153.332a7.833 7.833 0 0 0 10.705-2.868 7.835 7.835 0 0 0-2.868-10.705zM474.834 373.295l-25.335-14.628a7.834 7.834 0 0 0-10.705 2.868 7.837 7.837 0 0 0 2.868 10.705l25.335 14.628A7.833 7.833 0 0 0 477.702 384a7.837 7.837 0 0 0-2.868-10.705zM44.929 256a7.837 7.837 0 0 0-7.837-7.837H7.837C3.508 248.163 0 251.672 0 256s3.508 7.837 7.837 7.837h29.255A7.837 7.837 0 0 0 44.929 256zM504.163 248.163h-29.255c-4.329 0-7.837 3.509-7.837 7.837s3.508 7.837 7.837 7.837h29.255c4.329 0 7.837-3.509 7.837-7.837s-3.508-7.837-7.837-7.837zM62.501 358.667l-25.335 14.628a7.837 7.837 0 0 0 7.837 13.573l25.335-14.628a7.837 7.837 0 0 0-7.837-13.573zM445.587 154.384c1.329 0 2.678-.34 3.911-1.051l25.335-14.628a7.837 7.837 0 0 0-7.837-13.573l-25.335 14.628a7.837 7.837 0 0 0 3.926 14.624zM150.464 438.793a7.834 7.834 0 0 0-10.705 2.868l-14.628 25.336a7.837 7.837 0 0 0 13.573 7.837l14.628-25.336a7.837 7.837 0 0 0-2.868-10.705zM361.536 73.207a7.833 7.833 0 0 0 10.705-2.868l14.628-25.336a7.837 7.837 0 0 0-2.868-10.705 7.833 7.833 0 0 0-10.705 2.868l-14.628 25.336a7.836 7.836 0 0 0 2.868 10.705zM256 405.293c-82.32 0-149.293-66.973-149.293-149.293 0-19.715 3.779-38.867 11.235-56.925a7.837 7.837 0 1 0-14.488-5.98c-8.242 19.963-12.42 41.128-12.42 62.905 0 90.963 74.004 164.966 164.966 164.966a7.837 7.837 0 1 0 0-15.673zM383.001 163.128a7.837 7.837 0 0 0-2.234 10.855c16.044 24.358 24.526 52.718 24.526 82.017 0 33.185-10.655 64.6-30.813 90.848-19.527 25.426-47.173 44.196-77.846 52.851a7.838 7.838 0 0 0 2.124 15.381c.704 0 1.421-.096 2.133-.297 33.9-9.566 64.45-30.302 86.019-58.389 22.279-29.011 34.056-63.726 34.056-100.394 0-32.372-9.375-63.715-27.109-90.639a7.836 7.836 0 0 0-10.856-2.233zM354.66 143.951a7.838 7.838 0 0 0 10.363-11.758c-30.118-26.543-68.837-41.16-109.024-41.16-50.011 0-96.764 22.315-128.271 61.224a7.838 7.838 0 0 0 12.182 9.863c28.515-35.216 70.828-55.414 116.089-55.414 36.37.001 71.408 13.227 98.661 37.245z"/><path d="M390.64 256c0-75.892-61.743-137.635-137.635-137.635-4.329 0-7.837 3.509-7.837 7.837s3.508 7.837 7.837 7.837c67.25 0 121.962 54.712 121.962 121.962A7.837 7.837 0 1 0 390.64 256zM379.393 286.718c-4.134-1.273-8.521 1.05-9.795 5.186a121.302 121.302 0 0 1-16.204 33.375 7.838 7.838 0 0 0 6.438 12.296 7.83 7.83 0 0 0 6.453-3.38 137.021 137.021 0 0 0 18.294-37.682 7.837 7.837 0 0 0-5.186-9.795z"/></svg>